<svg class="main-svg" xmlns="http://www.w3.org/2000/svg" xmlns:xlink="http://www.w3.org/1999/xlink" width="1400" height="900" style="" viewBox="0 0 1400 900"><rect x="0" y="0" width="1400" height="900" style="fill: rgb(255, 255, 255); fill-opacity: 1;"/><defs id="defs-f95c20"><g class="clips"><clipPath id="clipf95c20xyplot" class="plotclip"><rect width="1228" height="720"/></clipPath><clipPath class="axesclip" id="clipf95c20x"><rect x="80" y="0" width="1228" height="900"/></clipPath><clipPath class="axesclip" id="clipf95c20y"><rect x="0" y="100" width="1400" height="720"/></clipPath><clipPath class="axesclip" id="clipf95c20xy"><rect x="80" y="100" width="1228" height="720"/></clipPath></g><g class="gradients"/></defs><g class="bglayer"/><g class="layer-below"><g class="imagelayer"/><g class="shapelayer"/></g><g class="cartesianlayer"><g class="subplot xy"><g class="layer-subplot"><g class="shapelayer"/><g class="imagelayer"/></g><g class="gridlayer"><g class="x"><path class="xgrid crisp" transform="translate(343.14,0)" d="M0,100v720" style="stroke: rgb(235, 240, 248); stroke-opacity: 1; stroke-width: 1px;"/><path class="xgrid crisp" transform="translate(577.05,0)" d="M0,100v720" style="stroke: rgb(235, 240, 248); stroke-opacity: 1; stroke-width: 1px;"/><path class="xgrid crisp" transform="translate(810.95,0)" d="M0,100v720" style="stroke: rgb(235, 240, 248); stroke-opacity: 1; stroke-width: 1px;"/><path class="xgrid crisp" transform="translate(1044.8600000000001,0)" d="M0,100v720" style="stroke: rgb(235, 240, 248); stroke-opacity: 1; stroke-width: 1px;"/><path class="xgrid crisp" transform="translate(1278.76,0)" d="M0,100v720" style="stroke: rgb(235, 240, 248); stroke-opacity: 1; stroke-width: 1px;"/></g><g class="y"><path class="ygrid crisp" transform="translate(0,687.42)" d="M80,0h1228" style="stroke: rgb(235, 240, 248); stroke-opacity: 1; stroke-width: 1px;"/><path class="ygrid crisp" transform="translate(0,590.8399999999999)" d="M80,0h1228" style="stroke: rgb(235, 240, 248); stroke-opacity: 1; stroke-width: 1px;"/><path class="ygrid crisp" transform="translate(0,494.26)" d="M80,0h1228" style="stroke: rgb(235, 240, 248); stroke-opacity: 1; stroke-width: 1px;"/><path class="ygrid crisp" transform="translate(0,397.68)" d="M80,0h1228" style="stroke: rgb(235, 240, 248); stroke-opacity: 1; stroke-width: 1px;"/><path class="ygrid crisp" transform="translate(0,301.1)" d="M80,0h1228" style="stroke: rgb(235, 240, 248); stroke-opacity: 1; stroke-width: 1px;"/><path class="ygrid crisp" transform="translate(0,204.51999999999998)" d="M80,0h1228" style="stroke: rgb(235, 240, 248); stroke-opacity: 1; stroke-width: 1px;"/><path class="ygrid crisp" transform="translate(0,107.94)" d="M80,0h1228" style="stroke: rgb(235, 240, 248); stroke-opacity: 1; stroke-width: 1px;"/></g></g><g class="zerolinelayer"><path class="xzl zl crisp" transform="translate(109.24,0)" d="M0,100v720" style="stroke: rgb(78, 78, 78); stroke-opacity: 1; stroke-width: 2px;"/><path class="yzl zl crisp" transform="translate(0,784)" d="M80,0h1228" style="stroke: rgb(78, 78, 78); stroke-opacity: 1; stroke-width: 2px;"/></g><path class="xlines-below"/><path class="ylines-below"/><g class="overlines-below"/><g class="xaxislayer-below"/><g class="yaxislayer-below"/><g class="overaxes-below"/><g class="plot" transform="translate(80,100)" clip-path="url('#clipf95c20xyplot')"><g class="scatterlayer mlayer"><g class="trace scatter traced1658f" style="stroke-miterlimit: 2; opacity: 1;"><g class="fills"/><g class="errorbars"/><g class="lines"><path class="js-line" d="M29.24,201.1L32.64,228.37L43.38,304.85L54.57,370.85L65.31,423.41L76.5,468.77L87.24,504.9L98.42,536.08L109.17,560.91L120.35,582.33L131.1,599.4L142.28,614.13L153.02,625.85L164.21,635.98L174.95,644.04L186.14,650.99L196.88,656.53L208.07,661.32L218.81,665.12L240.74,671.03L248.52,672.64L270.45,676.19L273.85,676.64L306.52,679.79L314.31,680.31L350.38,682.01L358.17,682.26L380.1,682.8L384.63,533.92L398.95,566.54L409.33,585.64L413.87,592.97L428.19,612.76L443.1,628.79L457.43,640.79L472.34,650.51L486.67,657.79L501.58,663.69L515.9,668.1L530.82,671.68L545.14,674.36L574.38,678.15L584.76,679.1L614,681.03L616.83,338.71L625.79,387.73L632.27,418.84L635.11,431.38L644.06,467.25L653.38,499.18L662.33,525.42L671.65,548.78L680.61,567.98L689.93,585.07L698.88,599.12L708.2,611.62L717.15,621.9L726.48,631.05L735.43,638.57L744.75,645.26L753.7,650.76L763.02,655.66L771.98,659.68L790.25,666.21L796.74,668.08L817.85,672.9L826.8,674.48L854.39,678.06L863.35,678.9L899.89,681.27L906.38,681.56L964.04,683.09L972.99,683.22L1076.14,683.87L1089.12,683.89L1198.76,683.98" style="vector-effect: non-scaling-stroke; fill: none; stroke: rgb(0, 113, 188); stroke-opacity: 1; stroke-width: 2px; opacity: 1;"/></g><g class="points"/><g class="text"/></g><g class="trace scatter trace622656" style="stroke-miterlimit: 2; opacity: 1;"><g class="fills"/><g class="errorbars"/><g class="lines"><path class="js-line" d="M29.24,442.55L32.64,416.76L43.38,345.86L54.57,286.92L65.31,242.07L76.5,205.53L87.24,178.45L98.42,157.16L109.17,142.16L120.35,131.2L131.1,124.36L142.28,120.38L153.02,119.02L164.21,119.71L174.95,121.99L186.14,125.75L196.88,130.43L208.07,136.18L218.81,142.38L240.74,156.53L248.52,161.9L284.6,188.08L292.38,193.88L372.31,252.82L380.1,258.35L384.63,249.6L398.95,227.9L413.87,213.3L428.19,205.16L443.1,201.4L457.43,201.23L472.34,203.79L486.67,208.22L501.58,214.38L515.9,221.39L545.14,237.86L555.52,244.16L603.62,274.56L614,281.2L616.83,266.05L625.79,223.76L635.11,187.74L644.06,159.7L653.38,136.32L662.33,118.6L671.65,104.37L680.61,94.13L689.93,86.51L698.88,81.65L708.2,78.77L717.15,77.77L726.48,78.28L735.43,80.03L744.75,82.94L753.7,86.61L771.98,96.22L778.46,100.16L799.57,114.39L808.52,120.91L836.12,142.09L845.07,149.18L945.76,228.64L954.71,235.39L985.14,257.71L1003.05,270.4L1039.6,295.25L1052.57,303.73L1094.79,330.12L1112.69,340.76L1162.21,368.6L1167.88,371.64L1198.76,387.69" style="vector-effect: non-scaling-stroke; fill: none; stroke: rgb(216, 82, 24); stroke-opacity: 1; stroke-width: 2px; opacity: 1;"/></g><g class="points"/><g class="text"/></g><g class="trace scatter trace9df7c4" style="stroke-miterlimit: 2; opacity: 1;"><g class="fills"/><g class="errorbars"/><g class="lines"><path class="js-line" d="M29.24,684L32.64,682.52L43.38,676.94L54.57,669.88L65.31,662.16L87.24,644.29L95.02,637.45L120.35,614.11L131.1,603.88L226.6,512.96L230,509.85L273.85,470.88L284.6,461.7L317.71,434.31L328.45,425.73L361.57,400.19L372.31,392.2L380.1,386.49L384.63,503.88L413.87,481.13L428.19,469.49L515.9,397.91L526.29,389.75L560.06,363.92L574.38,353.32L614,325.18L616.83,502.91L635.11,488.55L644.06,480.73L668.82,457.32L671.65,454.52L717.15,408.01L723.64,401.28L781.3,342.45L790.25,333.59L833.29,292.34L836.12,289.71L872.67,256.75L881.62,248.95L918.17,218.26L924.65,213L964.04,182.26L972.99,175.55L1003.05,153.74L1016.02,144.66L1058.24,116.48L1076.14,105.12L1112.69,82.98L1125.67,75.45L1167.88,52.07L1185.79,42.65L1198.76,36" style="vector-effect: non-scaling-stroke; fill: none; stroke: rgb(236, 176, 31); stroke-opacity: 1; stroke-width: 2px; opacity: 1;"/></g><g class="points"/><g class="text"/></g></g></g><g class="overplot"/><path class="xlines-above crisp" d="M0,0" style="fill: none;"/><path class="ylines-above crisp" d="M0,0" style="fill: none;"/><g class="overlines-above"/><g class="xaxislayer-above"><g class="xtick"><text text-anchor="middle" x="0" y="835" transform="translate(109.24,0)" style="font-family: 'Open Sans', verdana, arial, sans-serif; font-size: 14px; fill: rgb(42, 63, 95); fill-opacity: 1; white-space: pre;">0</text></g><g class="xtick"><text text-anchor="middle" x="0" y="835" transform="translate(343.14,0)" style="font-family: 'Open Sans', verdana, arial, sans-serif; font-size: 14px; fill: rgb(42, 63, 95); fill-opacity: 1; white-space: pre;">2</text></g><g class="xtick"><text text-anchor="middle" x="0" y="835" transform="translate(577.05,0)" style="font-family: 'Open Sans', verdana, arial, sans-serif; font-size: 14px; fill: rgb(42, 63, 95); fill-opacity: 1; white-space: pre;">4</text></g><g class="xtick"><text text-anchor="middle" x="0" y="835" transform="translate(810.95,0)" style="font-family: 'Open Sans', verdana, arial, sans-serif; font-size: 14px; fill: rgb(42, 63, 95); fill-opacity: 1; white-space: pre;">6</text></g><g class="xtick"><text text-anchor="middle" x="0" y="835" transform="translate(1044.8600000000001,0)" style="font-family: 'Open Sans', verdana, arial, sans-serif; font-size: 14px; fill: rgb(42, 63, 95); fill-opacity: 1; white-space: pre;">8</text></g><g class="xtick"><text text-anchor="middle" x="0" y="835" transform="translate(1278.76,0)" style="font-family: 'Open Sans', verdana, arial, sans-serif; font-size: 14px; fill: rgb(42, 63, 95); fill-opacity: 1; white-space: pre;">10</text></g></g><g class="yaxislayer-above"><g class="ytick"><text text-anchor="end" x="79" y="4.8999999999999995" transform="translate(0,784)" style="font-family: 'Open Sans', verdana, arial, sans-serif; font-size: 14px; fill: rgb(42, 63, 95); fill-opacity: 1; white-space: pre;">0</text></g><g class="ytick"><text text-anchor="end" x="79" y="4.8999999999999995" transform="translate(0,687.42)" style="font-family: 'Open Sans', verdana, arial, sans-serif; font-size: 14px; fill: rgb(42, 63, 95); fill-opacity: 1; white-space: pre;">0.2</text></g><g class="ytick"><text text-anchor="end" x="79" y="4.8999999999999995" transform="translate(0,590.8399999999999)" style="font-family: 'Open Sans', verdana, arial, sans-serif; font-size: 14px; fill: rgb(42, 63, 95); fill-opacity: 1; white-space: pre;">0.4</text></g><g class="ytick"><text text-anchor="end" x="79" y="4.8999999999999995" transform="translate(0,494.26)" style="font-family: 'Open Sans', verdana, arial, sans-serif; font-size: 14px; fill: rgb(42, 63, 95); fill-opacity: 1; white-space: pre;">0.6</text></g><g class="ytick"><text text-anchor="end" x="79" y="4.8999999999999995" transform="translate(0,397.68)" style="font-family: 'Open Sans', verdana, arial, sans-serif; font-size: 14px; fill: rgb(42, 63, 95); fill-opacity: 1; white-space: pre;">0.8</text></g><g class="ytick"><text text-anchor="end" x="79" y="4.8999999999999995" transform="translate(0,301.1)" style="font-family: 'Open Sans', verdana, arial, sans-serif; font-size: 14px; fill: rgb(42, 63, 95); fill-opacity: 1; white-space: pre;">1</text></g><g class="ytick"><text text-anchor="end" x="79" y="4.8999999999999995" transform="translate(0,204.51999999999998)" style="font-family: 'Open Sans', verdana, arial, sans-serif; font-size: 14px; fill: rgb(42, 63, 95); fill-opacity: 1; white-space: pre;">1.2</text></g><g class="ytick"><text text-anchor="end" x="79" y="4.8999999999999995" transform="translate(0,107.94)" style="font-family: 'Open Sans', verdana, arial, sans-serif; font-size: 14px; fill: rgb(42, 63, 95); fill-opacity: 1; white-space: pre;">1.4</text></g></g><g class="overaxes-above"/></g></g><g class="polarlayer"/><g class="ternarylayer"/><g class="geolayer"/><g class="funnelarealayer"/><g class="pielayer"/><g class="treemaplayer"/><g class="sunburstlayer"/><g class="glimages"/><defs id="topdefs-f95c20"><g class="clips"/><clipPath id="legendf95c20"><rect width="55" height="74" x="0" y="0"/></clipPath></defs><g class="layer-above"><g class="imagelayer"/><g class="shapelayer"/></g><g class="infolayer"><g class="legend" pointer-events="all" transform="translate(1332.56,100)"><rect class="bg" shape-rendering="crispEdges" width="55" height="74" x="0" y="0" style="stroke: rgb(68, 68, 68); stroke-opacity: 1; fill: rgb(255, 255, 255); fill-opacity: 1; stroke-width: 0px;"/><g class="scrollbox" transform="" clip-path="url('#legendf95c20')"><g class="groups"><g class="traces" transform="translate(0,15.6)" style="opacity: 1;"><text class="legendtext" text-anchor="start" x="40" y="5.46" style="font-family: 'Open Sans', verdana, arial, sans-serif; font-size: 14px; fill: rgb(42, 63, 95); fill-opacity: 1; white-space: pre;">A</text><g class="layers" style="opacity: 1;"><g class="legendfill"/><g class="legendlines"><path class="js-line" d="M5,0h30" style="fill: none; stroke: rgb(0, 113, 188); stroke-opacity: 1; stroke-width: 2px;"/></g><g class="legendsymbols"><g class="legendpoints"/></g></g><rect class="legendtoggle" x="0" y="-10.6" width="50" height="21.2" style="fill: rgb(0, 0, 0); fill-opacity: 0;"/></g><g class="traces" transform="translate(0,36.8)" style="opacity: 1;"><text class="legendtext" text-anchor="start" x="40" y="5.46" style="font-family: 'Open Sans', verdana, arial, sans-serif; font-size: 14px; fill: rgb(42, 63, 95); fill-opacity: 1; white-space: pre;">B</text><g class="layers" style="opacity: 1;"><g class="legendfill"/><g class="legendlines"><path class="js-line" d="M5,0h30" style="fill: none; stroke: rgb(216, 82, 24); stroke-opacity: 1; stroke-width: 2px;"/></g><g class="legendsymbols"><g class="legendpoints"/></g></g><rect class="legendtoggle" x="0" y="-10.6" width="50" height="21.2" style="fill: rgb(0, 0, 0); fill-opacity: 0;"/></g><g class="traces" transform="translate(0,58)" style="opacity: 1;"><text class="legendtext" text-anchor="start" x="40" y="5.46" style="font-family: 'Open Sans', verdana, arial, sans-serif; font-size: 14px; fill: rgb(42, 63, 95); fill-opacity: 1; white-space: pre;">C</text><g class="layers" style="opacity: 1;"><g class="legendfill"/><g class="legendlines"><path class="js-line" d="M5,0h30" style="fill: none; stroke: rgb(236, 176, 31); stroke-opacity: 1; stroke-width: 2px;"/></g><g class="legendsymbols"><g class="legendpoints"/></g></g><rect class="legendtoggle" x="0" y="-10.6" width="50" height="21.2" style="fill: rgb(0, 0, 0); fill-opacity: 0;"/></g></g></g><rect class="scrollbar" rx="20" ry="3" width="0" height="0" x="0" y="0" style="fill: rgb(128, 139, 164); fill-opacity: 1;"/></g><g class="g-gtitle"><text class="gtitle" x="70" y="50" text-anchor="start" dy="0em" style="font-family: 'Open Sans', verdana, arial, sans-serif; font-size: 18px; fill: rgb(42, 63, 95); opacity: 1; font-weight: normal; white-space: pre;">Model: reaction-1 | Concentration Profiles</text></g><g class="g-xtitle"><text class="xtitle" x="694" y="862.8" text-anchor="middle" style="font-family: 'Open Sans', verdana, arial, sans-serif; font-size: 14px; fill: rgb(42, 63, 95); opacity: 1; font-weight: normal; white-space: pre;">Time [s]</text></g><g class="g-ytitle"><text class="ytitle" transform="rotate(-90,31.934375000000003,460)" x="31.934375000000003" y="460" text-anchor="middle" style="font-family: 'Open Sans', verdana, arial, sans-serif; font-size: 14px; fill: rgb(42, 63, 95); opacity: 1; font-weight: normal; white-space: pre;">Concentration [molar]</text></g></g></svg>