<svg class="main-svg" xmlns="http://www.w3.org/2000/svg" xmlns:xlink="http://www.w3.org/1999/xlink" width="1400" height="900" style="" viewBox="0 0 1400 900"><rect x="0" y="0" width="1400" height="900" style="fill: rgb(255, 255, 255); fill-opacity: 1;"/><defs id="defs-591ece"><g class="clips"><clipPath id="clip591ecexyplot" class="plotclip"><rect width="1240" height="720"/></clipPath><clipPath class="axesclip" id="clip591ecex"><rect x="80" y="0" width="1240" height="900"/></clipPath><clipPath class="axesclip" id="clip591ecey"><rect x="0" y="100" width="1400" height="720"/></clipPath><clipPath class="axesclip" id="clip591ecexy"><rect x="80" y="100" width="1240" height="720"/></clipPath></g><g class="gradients"/></defs><g class="bglayer"/><g class="layer-below"><g class="imagelayer"/><g class="shapelayer"/></g><g class="cartesianlayer"><g class="subplot xy"><g class="layer-subplot"><g class="shapelayer"/><g class="imagelayer"/></g><g class="gridlayer"><g class="x"><path class="xgrid crisp" transform="translate(345.71,0)" d="M0,100v720" style="stroke: rgb(235, 240, 248); stroke-opacity: 1; stroke-width: 1px;"/><path class="xgrid crisp" transform="translate(581.9,0)" d="M0,100v720" style="stroke: rgb(235, 240, 248); stroke-opacity: 1; stroke-width: 1px;"/><path class="xgrid crisp" transform="translate(818.1,0)" d="M0,100v720" style="stroke: rgb(235, 240, 248); stroke-opacity: 1; stroke-width: 1px;"/><path class="xgrid crisp" transform="translate(1054.29,0)" d="M0,100v720" style="stroke: rgb(235, 240, 248); stroke-opacity: 1; stroke-width: 1px;"/><path class="xgrid crisp" transform="translate(1290.48,0)" d="M0,100v720" style="stroke: rgb(235, 240, 248); stroke-opacity: 1; stroke-width: 1px;"/></g><g class="y"><path class="ygrid crisp" transform="translate(0,784)" d="M80,0h1240" style="stroke: rgb(235, 240, 248); stroke-opacity: 1; stroke-width: 1px;"/><path class="ygrid crisp" transform="translate(0,698.22)" d="M80,0h1240" style="stroke: rgb(235, 240, 248); stroke-opacity: 1; stroke-width: 1px;"/><path class="ygrid crisp" transform="translate(0,612.43)" d="M80,0h1240" style="stroke: rgb(235, 240, 248); stroke-opacity: 1; stroke-width: 1px;"/><path class="ygrid crisp" transform="translate(0,526.65)" d="M80,0h1240" style="stroke: rgb(235, 240, 248); stroke-opacity: 1; stroke-width: 1px;"/><path class="ygrid crisp" transform="translate(0,440.86)" d="M80,0h1240" style="stroke: rgb(235, 240, 248); stroke-opacity: 1; stroke-width: 1px;"/><path class="ygrid crisp" transform="translate(0,355.08000000000004)" d="M80,0h1240" style="stroke: rgb(235, 240, 248); stroke-opacity: 1; stroke-width: 1px;"/><path class="ygrid crisp" transform="translate(0,269.3)" d="M80,0h1240" style="stroke: rgb(235, 240, 248); stroke-opacity: 1; stroke-width: 1px;"/><path class="ygrid crisp" transform="translate(0,183.51)" d="M80,0h1240" style="stroke: rgb(235, 240, 248); stroke-opacity: 1; stroke-width: 1px;"/></g></g><g class="zerolinelayer"><path class="xzl zl crisp" transform="translate(109.52,0)" d="M0,100v720" style="stroke: rgb(78, 78, 78); stroke-opacity: 1; stroke-width: 2px;"/></g><path class="xlines-below"/><path class="ylines-below"/><g class="overlines-below"/><g class="xaxislayer-below"/><g class="yaxislayer-below"/><g class="overaxes-below"/><g class="plot" transform="translate(80,100)" clip-path="url('#clip591ecexyplot')"><g class="scatterlayer mlayer"><g class="trace scatter trace3eeac1" style="stroke-miterlimit: 2; opacity: 1;"><g class="fills"/><g class="errorbars"/><g class="lines"><path class="js-line" d="M29.52,684L32.96,638.19L43.8,512.25L55.1,407.53L65.95,327.87L77.24,262.96L88.09,214.85L99.39,177.03L110.23,150.37L121.53,130.92L132.38,118.77L143.67,111.7L154.52,109.29L165.81,110.5L176.66,114.56L187.96,121.24L198.8,129.54L210.1,139.76L220.95,150.78L243.09,175.91L250.95,185.45L276.53,217.84L287.38,231.95L365.1,333.25L375.95,346.95L383.81,356.78L388.39,341.23L402.85,302.69L413.33,283.33L417.91,276.76L432.37,262.29L442.86,256.87L447.43,255.61L461.9,255.31L472.38,258.03L476.96,259.86L491.42,267.74L506.48,278.68L520.95,291.12L536.01,305.55L550.47,320.39L579.99,352.48L590.48,364.19L620,397.37L622.86,370.46L631.9,295.34L638.45,249.41L641.31,231.36L650.35,181.54L659.77,140L668.81,108.54L678.22,83.26L687.26,65.06L696.67,51.52L705.71,42.89L715.12,37.78L724.16,36L733.58,36.91L742.62,40.01L752.03,45.18L761.07,51.71L770.48,59.86L779.52,68.77L797.97,89.49L804.52,97.48L825.84,125.07L834.88,137.3L881.19,202.1L890.23,214.85L945.59,291.4L952.14,300.2L989.05,348.39L994.77,355.65L1031.67,401.03L1049.75,422.34L1086.66,463.98L1099.76,478.17L1136.67,516.54L1142.39,522.29L1179.29,558.03L1197.37,574.75L1210.48,586.55" style="vector-effect: non-scaling-stroke; fill: none; stroke: rgb(0, 113, 188); stroke-opacity: 1; stroke-width: 2px; opacity: 1;"/></g><g class="points"/><g class="text"/></g></g></g><g class="overplot"/><path class="xlines-above crisp" d="M0,0" style="fill: none;"/><path class="ylines-above crisp" d="M0,0" style="fill: none;"/><g class="overlines-above"/><g class="xaxislayer-above"><g class="xtick"><text text-anchor="middle" x="0" y="835" transform="translate(109.52,0)" style="font-family: 'Open Sans', verdana, arial, sans-serif; font-size: 14px; fill: rgb(42, 63, 95); fill-opacity: 1; white-space: pre;">0</text></g><g class="xtick"><text text-anchor="middle" x="0" y="835" transform="translate(345.71,0)" style="font-family: 'Open Sans', verdana, arial, sans-serif; font-size: 14px; fill: rgb(42, 63, 95); fill-opacity: 1; white-space: pre;">2</text></g><g class="xtick"><text text-anchor="middle" x="0" y="835" transform="translate(581.9,0)" style="font-family: 'Open Sans', verdana, arial, sans-serif; font-size: 14px; fill: rgb(42, 63, 95); fill-opacity: 1; white-space: pre;">4</text></g><g class="xtick"><text text-anchor="middle" x="0" y="835" transform="translate(818.1,0)" style="font-family: 'Open Sans', verdana, arial, sans-serif; font-size: 14px; fill: rgb(42, 63, 95); fill-opacity: 1; white-space: pre;">6</text></g><g class="xtick"><text text-anchor="middle" x="0" y="835" transform="translate(1054.29,0)" style="font-family: 'Open Sans', verdana, arial, sans-serif; font-size: 14px; fill: rgb(42, 63, 95); fill-opacity: 1; white-space: pre;">8</text></g><g class="xtick"><text text-anchor="middle" x="0" y="835" transform="translate(1290.48,0)" style="font-family: 'Open Sans', verdana, arial, sans-serif; font-size: 14px; fill: rgb(42, 63, 95); fill-opacity: 1; white-space: pre;">10</text></g></g><g class="yaxislayer-above"><g class="ytick"><text text-anchor="end" x="79" y="4.8999999999999995" transform="translate(0,784)" style="font-family: 'Open Sans', verdana, arial, sans-serif; font-size: 14px; fill: rgb(42, 63, 95); fill-opacity: 1; white-space: pre;">0.1</text></g><g class="ytick"><text text-anchor="end" x="79" y="4.8999999999999995" transform="translate(0,698.22)" style="font-family: 'Open Sans', verdana, arial, sans-serif; font-size: 14px; fill: rgb(42, 63, 95); fill-opacity: 1; white-space: pre;">0.12</text></g><g class="ytick"><text text-anchor="end" x="79" y="4.8999999999999995" transform="translate(0,612.43)" style="font-family: 'Open Sans', verdana, arial, sans-serif; font-size: 14px; fill: rgb(42, 63, 95); fill-opacity: 1; white-space: pre;">0.14</text></g><g class="ytick"><text text-anchor="end" x="79" y="4.8999999999999995" transform="translate(0,526.65)" style="font-family: 'Open Sans', verdana, arial, sans-serif; font-size: 14px; fill: rgb(42, 63, 95); fill-opacity: 1; white-space: pre;">0.16</text></g><g class="ytick"><text text-anchor="end" x="79" y="4.8999999999999995" transform="translate(0,440.86)" style="font-family: 'Open Sans', verdana, arial, sans-serif; font-size: 14px; fill: rgb(42, 63, 95); fill-opacity: 1; white-space: pre;">0.18</text></g><g class="ytick"><text text-anchor="end" x="79" y="4.8999999999999995" transform="translate(0,355.08000000000004)" style="font-family: 'Open Sans', verdana, arial, sans-serif; font-size: 14px; fill: rgb(42, 63, 95); fill-opacity: 1; white-space: pre;">0.2</text></g><g class="ytick"><text text-anchor="end" x="79" y="4.8999999999999995" transform="translate(0,269.3)" style="font-family: 'Open Sans', verdana, arial, sans-serif; font-size: 14px; fill: rgb(42, 63, 95); fill-opacity: 1; white-space: pre;">0.22</text></g><g class="ytick"><text text-anchor="end" x="79" y="4.8999999999999995" transform="translate(0,183.51)" style="font-family: 'Open Sans', verdana, arial, sans-serif; font-size: 14px; fill: rgb(42, 63, 95); fill-opacity: 1; white-space: pre;">0.24</text></g></g><g class="overaxes-above"/></g></g><g class="polarlayer"/><g class="ternarylayer"/><g class="geolayer"/><g class="funnelarealayer"/><g class="pielayer"/><g class="treemaplayer"/><g class="sunburstlayer"/><g class="glimages"/><defs id="topdefs-591ece"><g class="clips"/></defs><g class="layer-above"><g class="imagelayer"/><g class="shapelayer"/></g><g class="infolayer"><g class="g-gtitle"><text class="gtitle" x="70" y="50" text-anchor="start" dy="0em" style="font-family: 'Open Sans', verdana, arial, sans-serif; font-size: 18px; fill: rgb(42, 63, 95); opacity: 1; font-weight: normal; white-space: pre;">Model: reaction-1 | Variable: rB</text></g><g class="g-xtitle"><text class="xtitle" x="700" y="862.8" text-anchor="middle" style="font-family: 'Open Sans', verdana, arial, sans-serif; font-size: 14px; fill: rgb(42, 63, 95); opacity: 1; font-weight: normal; white-space: pre;">Time [s]</text></g><g class="g-ytitle"><text class="ytitle" transform="rotate(-90,23.028125000000003,460)" x="23.028125000000003" y="460" text-anchor="middle" style="font-family: 'Open Sans', verdana, arial, sans-serif; font-size: 14px; fill: rgb(42, 63, 95); opacity: 1; font-weight: normal; white-space: pre;">[M/s]</text></g></g></svg>